<?xml version="1.0" encoding="UTF-8"?>
<svg width="18px" height="18px" viewBox="0 0 18 18" version="1.1" xmlns="http://www.w3.org/2000/svg" xmlns:xlink="http://www.w3.org/1999/xlink">
    <!-- Generator: Sketch 56.3 (81716) - https://sketch.com -->
    <title>accordion_plus</title>
    <desc>Created with Sketch.</desc>
    <g id="Symbols" stroke="none" stroke-width="1" fill="none" fill-rule="evenodd">
        <g id="maclarima_ekle_aktif" transform="translate(-113.000000, -2.000000)" fill="#369074" fill-rule="nonzero">
            <g id="Group-3" transform="translate(9.000000, 1.000000)">
                <g id="accordion_plus" transform="translate(104.000000, 1.000000)">
                    <path d="M9.9,8.1 L17.1,8.1 C17.5970563,8.1 18,8.50294373 18,9 C18,9.49705627 17.5970563,9.9 17.1,9.9 L9.9,9.9 L9.9,17.1 C9.9,17.5970563 9.49705627,18 9,18 C8.50294373,18 8.1,17.5970563 8.1,17.1 L8.1,9.9 L0.9,9.9 C0.402943725,9.9 1.0658141e-14,9.49705627 1.0658141e-14,9 C1.0658141e-14,8.50294373 0.402943725,8.1 0.9,8.1 L8.1,8.1 L8.1,0.9 C8.1,0.402943725 8.50294373,9.13077564e-17 9,0 C9.49705627,-9.13077564e-17 9.9,0.402943725 9.9,0.9 L9.9,8.1 Z" id="Combined-Shape"></path>
                </g>
            </g>
        </g>
    </g>
</svg>