<?xml version="1.0" encoding="UTF-8"?>
<svg width="44px" height="45px" viewBox="0 0 44 45" version="1.1" xmlns="http://www.w3.org/2000/svg" xmlns:xlink="http://www.w3.org/1999/xlink">
    <!-- Generator: Sketch 60.1 (88133) - https://sketch.com -->
    <title>bonus</title>
    <desc>Created with Sketch.</desc>
    <g id="Page-1" stroke="none" stroke-width="1" fill="none" fill-rule="evenodd">
        <g id="homepage" transform="translate(-1132.000000, -146.000000)">
            <g id="bonus" transform="translate(1132.000000, 146.000000)">
                <g id="noun_Badge_329893-(1)" stroke-width="1" fill="#6FB548">
                    <path d="M43.3612859,25.3836215 L43.3681596,25.3836215 C43.1912305,24.9965429 43.0473306,24.5650785 42.9457437,24.0981935 C42.598313,22.5271148 42.7909531,20.8902047 43.3697664,19.6158511 L43.3612859,19.6158511 C44.0252608,18.4128663 44.2050464,16.9544658 43.7406746,15.5481856 C43.2763029,14.1419054 42.2593626,13.06531 41.0026487,12.4761665 L41.0082726,12.4720355 C40.6331688,12.2605661 40.2621713,11.994076 39.8994757,11.676872 C38.6805221,10.605638 37.8589893,9.16798017 37.5659227,7.80564622 L37.5590491,7.80977716 C37.3900649,6.55045323 36.7541202,5.35423613 35.6940635,4.49473524 C35.6103302,4.42740957 35.5252579,4.36149019 35.4360792,4.29838336 C34.221232,3.42772013 32.7553633,3.14760669 31.3871537,3.3974851 L31.3887606,3.39062949 C30.959114,3.43457574 30.5002769,3.43598202 30.0176944,3.38790482 C28.3914113,3.22583102 26.8684112,2.5405331 25.8165672,1.60535676 L25.8139784,1.61361865 C24.855955,0.620696929 23.501582,0 21.9995598,0 C20.4974483,0 19.1445929,0.620784822 18.1862124,1.61361865 L18.1835344,1.60403837 C17.8613664,1.88968904 17.4902796,2.1589038 17.0718808,2.39779566 C15.6602871,3.20667046 14.0188284,3.5348611 12.6086629,3.38658643 L12.6128585,3.39757299 C11.244649,3.14760669 9.77735201,3.42780802 8.56393305,4.29847126 C7.72008332,4.89991972 7.11065116,5.70606986 6.75786431,6.59729994 C6.60164543,6.98727902 6.49559513,7.39518818 6.43980268,7.80986506 L6.43283978,7.80432783 C6.34508941,8.22041099 6.20279633,8.65161166 6.0074781,9.08834955 C5.34912712,10.5605492 4.2165849,11.7744327 2.98781186,12.4693109 L2.99620305,12.4761665 C1.74091743,13.06531 0.722816697,14.1419054 0.259783949,15.5481856 C-0.206105373,16.9544658 -0.0248022091,18.4128663 0.639172647,19.6158511 L0.629442443,19.6158511 C0.806550014,20.0059181 0.948843093,20.4357125 1.05203682,20.9012791 C1.39937833,22.4736762 1.20673814,24.1119926 0.629442443,25.3837973 L0.639172647,25.3837973 C-0.0248022091,26.5895947 -0.206105373,28.0479952 0.259783949,29.4542754 C0.722905965,30.8604677 1.7410067,31.9370631 2.99620305,32.5249761 L2.98932942,32.5305134 C3.36443325,32.741807 3.73694832,33.0084728 4.09669808,33.3270832 C5.31707993,34.3983172 6.13861269,35.8345687 6.43150076,37.1998031 L6.43989195,37.1915412 C6.47193913,37.4195344 6.51800138,37.6445392 6.57941772,37.8672589 C6.88069698,38.96864 7.55297375,39.9822164 8.56402232,40.7044292 C9.31574755,41.2400462 10.1637929,41.555844 11.025764,41.6547231 C11.557176,41.7180936 12.0914445,41.701394 12.6129478,41.6052396 L12.6101805,41.6135015 C13.039827,41.5695552 13.5,41.5668305 13.9812466,41.6162261 C15.6061014,41.7782999 17.1291908,42.4621916 18.1821953,43.3987742 L18.1863909,43.3877876 C19.1445929,44.3821156 20.4976269,45 21.9997383,45 C23.5017605,45 24.8560442,44.3821156 25.8142462,43.3877876 L25.8156745,43.3933249 C26.1378424,43.1076742 26.5090185,42.841272 26.9288456,42.6022922 C28.3403501,41.7920112 29.9806483,41.4651389 31.3904567,41.6135015 L31.3876894,41.6052396 C31.557834,41.6354746 31.7266397,41.6601724 31.8994624,41.6738836 C33.1143096,41.7753116 34.3723626,41.4651389 35.4366148,40.7044292 C36.3766061,40.0315241 37.0252269,39.1114653 37.3529294,38.0979767 C37.4505886,37.8013395 37.5175395,37.499165 37.5594062,37.1915412 L37.56503,37.1970785 C37.6528697,36.779589 37.7938237,36.348652 37.990481,35.9117383 C38.6504388,34.4396266 39.7827132,33.2254795 41.0116648,32.5306891 L41.0030951,32.5251519 C42.259809,31.9373268 43.2767492,30.8579188 43.7412102,29.4544512 C44.2052249,28.0476436 44.0252608,26.5865185 43.3612859,25.3836215 Z" id="Path" fill-rule="nonzero"></path>
                </g>
                <text id="BONUS" fill="#FFFFFF" font-family="SourceSansPro-BoldIt, Source Sans Pro" font-size="12" font-style="italic" font-weight="bold" letter-spacing="-0.6">
                    <tspan x="5.086" y="26">BONUS</tspan>
                </text>
            </g>
        </g>
    </g>
</svg>