<?xml version="1.0" encoding="UTF-8"?>
<svg width="22px" height="22px" viewBox="0 0 22 22" version="1.1" xmlns="http://www.w3.org/2000/svg" xmlns:xlink="http://www.w3.org/1999/xlink">
    <!-- Generator: Sketch 56.3 (81716) - https://sketch.com -->
    <title>filter_icon</title>
    <desc>Created with Sketch.</desc>
    <g id="Page-1" stroke="none" stroke-width="1" fill="none" fill-rule="evenodd">
        <g id="DROPPING_ODDS" transform="translate(-56.000000, -174.000000)" fill-rule="nonzero" stroke="#747B78">
            <g id="filter_icon" transform="translate(57.000000, 175.000000)">
                <path d="M19.8683361,0.973894569 C19.6355618,0.375515929 19.1222396,-0.006309381 18.559148,0 L1.43959769,0 C0.877353609,-0.005221861 0.365184609,0.376429659 0.132755819,0.973894569 C-0.103083431,1.56193884 -0.0200220715,2.25691237 0.344697259,2.74720645 L7.14168273,11.9751819 L7.14168273,19.1660848 C7.1414775,19.4736154 7.28643799,19.7562773 7.51877913,19.9013939 C7.75112027,20.0465105 8.0330657,20.0304873 8.2522246,19.8597117 L12.5371957,16.5257393 C12.7360476,16.3712289 12.8555104,16.110903 12.8554989,15.8321125 L12.8554989,11.9760946 L19.6532664,2.74720645 C20.0190342,2.25768571 20.1033301,1.56264187 19.8683361,0.973894569 Z" id="Path_256"></path>
            </g>
        </g>
    </g>
</svg>