<?xml version="1.0" encoding="UTF-8"?>
<svg width="20px" height="20px" viewBox="0 0 20 20" version="1.1" xmlns="http://www.w3.org/2000/svg" xmlns:xlink="http://www.w3.org/1999/xlink">
    <!-- Generator: Sketch 56.3 (81716) - https://sketch.com -->
    <title>icon_Tennis_black</title>
    <desc>Created with Sketch.</desc>
    <g id="Page-1" stroke="none" stroke-width="1" fill="none" fill-rule="evenodd">
        <g id="UI-Elements" transform="translate(-136.000000, -113.000000)" fill="#4A4A4A" fill-rule="nonzero">
            <g id="icon_Tennis_black" transform="translate(136.000000, 113.000000)">
                <path d="M10,20 C15.513916,20 20,15.513916 20,10 C20,4.486084 15.513916,0 10,0 C4.486084,0 0,4.486084 0,10 C0,15.513916 4.486084,20 10,20 Z M19.1666667,10 C19.1666667,12.4701945 18.18278,14.7136688 16.5884908,16.3637288 C15.5166372,14.4884745 14.9458822,12.3027293 14.9458822,10 C14.9458822,7.69732158 15.5166372,5.51165262 16.58844,3.63622029 C18.18278,5.28628033 19.1666667,7.52975463 19.1666667,10 Z M15.9662628,3.04934183 C14.756902,5.08878071 14.1125488,7.48085021 14.1125488,10 C14.1125488,12.5193787 14.7569021,14.9112956 15.9662628,16.9505819 C14.3614705,18.3300781 12.2772217,19.1666667 10,19.1666667 C7.72282917,19.1666667 5.63860575,18.330129 4.03383892,16.9506836 C5.24322508,14.9110413 5.88765463,12.519048 5.88765463,10 C5.88765463,7.48079938 5.24325054,5.08888246 4.03383892,3.04924013 C5.63868204,1.66984558 7.72285463,0.833333333 10,0.833333333 C12.2771963,0.833333333 14.3614451,1.669871 15.9662628,3.04934183 Z M3.41168721,3.63609313 C4.48354083,5.5117035 5.05432129,7.69744875 5.05432129,10 C5.05432129,12.3024241 4.48351542,14.4882202 3.41161092,16.3638306 C1.81727092,14.7137451 0.833333333,12.4702454 0.833333333,10 C0.833333333,7.52970379 1.81729633,5.28617858 3.41168721,3.63609313 Z" id="icon_Tennis"></path>
            </g>
        </g>
    </g>
</svg>