<?xml version="1.0" encoding="UTF-8"?>
<svg width="20px" height="14px" viewBox="0 0 20 14" version="1.1" xmlns="http://www.w3.org/2000/svg" xmlns:xlink="http://www.w3.org/1999/xlink">
    <!-- Generator: Sketch 56.3 (81716) - https://sketch.com -->
    <title>icon_Esport</title>
    <desc>Created with Sketch.</desc>
    <g id="Page-1" stroke="none" stroke-width="1" fill="none" fill-rule="evenodd">
        <g id="UI-Elements" transform="translate(-187.000000, -73.000000)" fill="#1E68C0">
            <g id="icon_Esport" transform="translate(187.000000, 73.000000)">
                <g>
                    <path d="M4.31009929,8.09936525 L4.75138346,8.09936525 C4.981486,8.09936525 5.16805013,7.91300458 5.16805013,7.68269858 C5.16805013,7.45239258 4.981486,7.26603192 4.75138346,7.26603192 L4.31009929,7.26603192 C4.07999675,7.26603192 3.89343263,7.45239258 3.89343263,7.68269858 C3.89343263,7.91300458 4.07999675,8.09936525 4.31009929,8.09936525 Z" id="Path" fill-rule="nonzero"></path>
                    <path d="M4.31009929,11.2394206 L4.75138346,11.2394206 C4.981486,11.2394206 5.16805013,11.0530599 5.16805013,10.8227539 C5.16805013,10.5924479 4.981486,10.4060873 4.75138346,10.4060873 L4.31009929,10.4060873 C4.07999675,10.4060873 3.89343263,10.5924479 3.89343263,10.8227539 C3.89343263,11.0530599 4.07999675,11.2394206 4.31009929,11.2394206 Z" id="Path" fill-rule="nonzero"></path>
                    <path d="M6.10066733,9.89013671 C6.33076988,9.89013671 6.517334,9.70377604 6.517334,9.47347004 L6.517334,9.03238929 C6.517334,8.80208329 6.33076988,8.61572262 6.10066733,8.61572262 C5.87056479,8.61572262 5.68400067,8.80208329 5.68400067,9.03238929 L5.68400067,9.47347004 C5.68400067,9.70377604 5.87056479,9.89013671 6.10066733,9.89013671 Z" id="Path" fill-rule="nonzero"></path>
                    <path d="M2.96081542,9.89013671 C3.19091796,9.89013671 3.37748208,9.70377604 3.37748208,9.47347004 L3.37748208,9.03238929 C3.37748208,8.80208329 3.19091796,8.61572262 2.96081542,8.61572262 C2.73071287,8.61572262 2.54414875,8.80208329 2.54414875,9.03238929 L2.54414875,9.47347004 C2.54414875,9.70377604 2.73071287,9.89013671 2.96081542,9.89013671 Z" id="Path" fill-rule="nonzero"></path>
                    <path d="M15.2484131,8.09936525 L15.6896972,8.09936525 C15.9197998,8.09936525 16.1063639,7.91300458 16.1063639,7.68269858 C16.1063639,7.45239258 15.9197998,7.26603192 15.6896972,7.26603192 L15.2484131,7.26603192 C15.0183105,7.26603192 14.8317464,7.45239258 14.8317464,7.68269858 C14.8317464,7.91300458 15.0183105,8.09936525 15.2484131,8.09936525 Z" id="Path" fill-rule="nonzero"></path>
                    <path d="M15.2484131,11.2394206 L15.6896972,11.2394206 C15.9197998,11.2394206 16.1063639,11.0530599 16.1063639,10.8227539 C16.1063639,10.5924479 15.9197998,10.4060873 15.6896972,10.4060873 L15.2484131,10.4060873 C15.0183105,10.4060873 14.8317464,10.5924479 14.8317464,10.8227539 C14.8317464,11.0530599 15.0183105,11.2394206 15.2484131,11.2394206 Z" id="Path" fill-rule="nonzero"></path>
                    <path d="M17.0389811,9.89013671 C17.2690837,9.89013671 17.4556478,9.70377604 17.4556478,9.47347004 L17.4556478,9.03238929 C17.4556478,8.80208329 17.2690837,8.61572262 17.0389811,8.61572262 C16.8088786,8.61572262 16.6223145,8.80208329 16.6223145,9.03238929 L16.6223145,9.47347004 C16.6223145,9.70377604 16.8088786,9.89013671 17.0389811,9.89013671 Z" id="Path" fill-rule="nonzero"></path>
                    <path d="M13.8991293,9.89013671 C14.1292318,9.89013671 14.3157959,9.70377604 14.3157959,9.47347004 L14.3157959,9.03238929 C14.3157959,8.80208329 14.1292318,8.61572262 13.8991293,8.61572262 C13.6690267,8.61572262 13.4824626,8.80208329 13.4824626,9.03238929 L13.4824626,9.47347004 C13.4824626,9.70377604 13.6690267,9.89013671 13.8991293,9.89013671 Z" id="Path" fill-rule="nonzero"></path>
                    <path d="M4.67814129,13.931071 C7.09391279,13.931071 9.10095217,12.0719401 9.33227542,9.70906575 L10.6675212,9.70906575 C10.8988444,12.0719401 12.9058838,13.931071 15.3216553,13.931071 C17.9012044,13.931071 20,11.8322754 20,9.25292971 C20,6.67358404 17.9012044,4.57478842 15.3216553,4.57478842 L10.3429667,4.57478842 C10.5185954,4.05115762 11.0082499,3.67024742 11.5901693,3.67024742 L13.6897786,3.67024742 C14.6366373,3.67024742 15.4071045,2.89998375 15.4071045,1.953125 C15.4071045,1.00626625 14.6366373,0.235595708 13.6897786,0.235595708 L5.83251954,0.235595708 C5.602417,0.235595708 5.41585287,0.421956375 5.41585287,0.652262375 C5.41585287,0.882568375 5.602417,1.06892904 5.83251954,1.06892904 L13.6897787,1.06892904 C14.1772461,1.06892904 14.5737712,1.46565754 14.5737712,1.953125 C14.5737712,2.44059246 14.1772461,2.83691408 13.6897787,2.83691408 L11.5901693,2.83691408 C10.5448914,2.83691408 9.67272442,3.58566287 9.477946,4.57478842 L4.67814129,4.57478842 C2.09859212,4.57478842 0,6.673584 0,9.25292971 C0,11.8322754 2.09859212,13.931071 4.67814129,13.931071 Z M4.67814129,5.40812175 L15.3216553,5.40812175 C17.4418132,5.40812175 19.1666667,7.13297525 19.1666667,9.25292971 C19.1666667,11.3728842 17.4418132,13.0977377 15.3216553,13.0977377 C13.2220459,13.0977377 11.4982097,11.3887533 11.4788818,9.288737 C11.4768473,9.06005862 11.2908935,8.87573246 11.0622152,8.87573246 L8.93758138,8.87573246 C8.708903,8.87573246 8.52294921,9.06005862 8.52091471,9.288737 C8.50158692,11.3887533 6.77775063,13.0977377 4.67814125,13.0977377 C2.55818683,13.0977377 0.833333333,11.3728841 0.833333333,9.25292971 C0.833333333,7.13297529 2.55818683,5.40812175 4.67814129,5.40812175 Z" id="Shape" fill-rule="nonzero"></path>
                    <path d="M9.33654783,7.34619142 L10.3684489,7.34619142 C10.5985514,7.34619142 10.7851155,7.15983075 10.7851155,6.92952475 C10.7851155,6.69921875 10.5985514,6.51285808 10.3684489,6.51285808 L9.33654783,6.51285808 C9.10644529,6.51285808 8.91988117,6.69921875 8.91988117,6.92952475 C8.91988117,7.15983075 9.10644533,7.34619142 9.33654783,7.34619142 Z" id="Path" fill-rule="nonzero"></path>
                </g>
            </g>
        </g>
    </g>
</svg>