<?xml version="1.0" encoding="UTF-8"?>
<svg width="20px" height="20px" viewBox="0 0 20 20" version="1.1" xmlns="http://www.w3.org/2000/svg" xmlns:xlink="http://www.w3.org/1999/xlink">
    <!-- Generator: Sketch 56.3 (81716) - https://sketch.com -->
    <title>icon_remove</title>
    <desc>Created with Sketch.</desc>
    <g id="Page-1" stroke="none" stroke-width="1" fill="none" fill-rule="evenodd">
        <g id="UI-Elements" transform="translate(-940.000000, -1753.000000)" fill="#ffffff">
            <g id="lightbox" transform="translate(290.000000, 1721.000000)">
                <g id="icon_delete" transform="translate(650.000000, 32.000000)">
                    <path d="M10.3786797,9.62132034 L22.3786797,9.62132034 C22.654822,9.62132034 22.8786797,9.84517797 22.8786797,10.1213203 C22.8786797,10.3974627 22.654822,10.6213203 22.3786797,10.6213203 L10.3786797,10.6213203 L10.3786797,22.6213203 C10.3786797,22.8974627 10.154822,23.1213203 9.87867966,23.1213203 C9.60253728,23.1213203 9.37867966,22.8974627 9.37867966,22.6213203 L9.37867966,10.6213203 L-2.62132034,10.6213203 C-2.89746272,10.6213203 -3.12132034,10.3974627 -3.12132034,10.1213203 C-3.12132034,9.84517797 -2.89746272,9.62132034 -2.62132034,9.62132034 L9.37867966,9.62132034 L9.37867966,-2.37867966 C9.37867966,-2.65482203 9.60253728,-2.87867966 9.87867966,-2.87867966 C10.154822,-2.87867966 10.3786797,-2.65482203 10.3786797,-2.37867966 L10.3786797,9.62132034 Z" id="Combined-Shape" transform="translate(9.878680, 10.121320) rotate(-315.000000) translate(-9.878680, -10.121320) "></path>
                </g>
            </g>
        </g>
    </g>
</svg>