<?xml version="1.0" encoding="UTF-8"?>
<svg width="20px" height="20px" viewBox="0 0 20 20" version="1.1" xmlns="http://www.w3.org/2000/svg" xmlns:xlink="http://www.w3.org/1999/xlink">
    <!-- Generator: Sketch 56.3 (81716) - https://sketch.com -->
    <title>icon_Football</title>
    <desc>Created with Sketch.</desc>
    <g id="Page-1" stroke="none" stroke-width="1" fill="none" fill-rule="evenodd">
        <g id="UI-Elements" transform="translate(-31.000000, -70.000000)" fill="#1E68C0" fill-rule="nonzero">
            <g id="icon_Football" transform="translate(31.000000, 70.000000)">
                <path d="M19.9987793,9.74446617 L19.987793,9.51619467 C19.9877675,9.51573692 19.9877167,9.51527912 19.9876912,9.51482137 C19.9776205,9.30488587 19.9598948,9.09703575 19.9370066,8.89066062 C19.9330902,8.85538737 19.9278768,8.82039392 19.9235789,8.78517154 C19.9024709,8.61183171 19.8769124,8.43994146 19.8470052,8.26944992 C19.8402659,8.23102321 19.8336029,8.19267279 19.8264058,8.15434779 C19.7491709,7.74241133 19.6476745,7.33909613 19.5214589,6.9464875 C19.5156097,6.92825325 19.5089721,6.91032417 19.5030212,6.89211533 C19.4461567,6.71869921 19.3843587,6.54754646 19.3183898,6.37842821 C19.3023427,6.33722946 19.2862701,6.29610704 19.2696889,6.25511175 C19.2035166,6.09196987 19.1336567,5.93081162 19.0592702,5.77204392 C19.046936,5.74564621 19.0357971,5.71876529 19.023234,5.69246933 C18.9408111,5.52047733 18.8530476,5.35166429 18.7612406,5.18526717 C18.7256622,5.12056992 18.6877441,5.05716963 18.6506907,4.99320988 C18.5915629,4.89143375 18.5310109,4.79067488 18.4684244,4.691213 C18.4407551,4.64714054 18.4162394,4.60136417 18.387858,4.55769858 L18.2661946,4.370931 L18.259913,4.37085471 C16.9830321,2.50317892 15.0900776,1.08970642 12.8760528,0.423482292 L12.8747558,0.419515 L12.6586913,0.359904 C12.6462554,0.356470792 12.6335652,0.354309125 12.6211038,0.35092675 C12.2112782,0.239461292 11.791102,0.153935792 11.3623046,0.0952402917 C11.3415272,0.0924174167 11.3207752,0.089976 11.2999979,0.0872802917 C11.1029306,0.06156925 10.9041849,0.0415547917 10.7037352,0.027542125 C10.6852467,0.026245125 10.6667581,0.024490375 10.6482695,0.0232950833 C10.4337057,0.009485875 10.2179972,0 10,0 C9.78052775,0 9.56336975,0.00963845833 9.34735617,0.0236257083 C9.32642621,0.024999 9.30554708,0.0269317917 9.28461713,0.0284322083 C9.086024,0.0425465833 8.88910929,0.0624592917 8.69387313,0.088068625 C8.672816,0.090840625 8.651708,0.0932311667 8.63065088,0.0961303333 C8.2009125,0.155258125 7.77992254,0.241521167 7.36925762,0.35367325 C7.35783896,0.356775875 7.34619142,0.358784958 7.33479821,0.361938417 L7.11873375,0.421549417 L7.11751304,0.425313333 C4.89936829,1.09441125 3.00366721,2.5135295 1.72787988,4.38799542 L1.72200525,4.38781742 L1.59423833,4.58597821 C1.57035833,4.62298079 1.54986071,4.66181437 1.52648929,4.69912212 C1.45612083,4.81122337 1.38839725,4.92497762 1.32237754,5.04000346 C1.29193625,5.09323121 1.26007083,5.14564512 1.23062138,5.1993815 C1.13667808,5.37030537 1.0478465,5.54433187 0.963796,5.72113037 C0.9486135,5.75317383 0.934778875,5.78575133 0.919952417,5.81792196 C0.846506792,5.97674054 0.777409875,6.13782246 0.712178583,6.30098979 C0.698471125,6.33539837 0.684687333,6.36973062 0.671361333,6.40431721 C0.519536375,6.79682412 0.391413417,7.20077512 0.289586417,7.61525471 C0.288594583,7.61924742 0.287806208,7.623291 0.286814417,7.62728371 C0.23791,7.82737729 0.195846583,8.02998858 0.1592255,8.23453267 C0.15561425,8.25467425 0.151901292,8.27473958 0.148417208,8.29490662 C0.0756073333,8.716685 0.0285085417,9.14695742 0.010528625,9.58485921 C0.0104523333,9.58653767 0.010248875,9.58816529 0.0101725833,9.58984375 L0.00162766667,9.80428058 L0.00490829167,9.80682371 C0.00368754167,9.87131754 0,9.93522646 0,10 C0,12.5715892 0.976359042,14.9190521 2.57710775,16.6927083 L2.57568358,16.6992188 L2.72664387,16.8591309 C2.76832579,16.9033051 2.81321208,16.9439443 2.8556315,16.9873301 C2.91503904,17.0480601 2.975413,17.107722 3.036321,17.1669261 C3.11088562,17.2393545 3.1851705,17.3119355 3.26179504,17.3819224 C3.33374025,17.4476369 3.40815225,17.5106558 3.48200479,17.5742849 C3.60595704,17.6810455 3.73209633,17.7846527 3.86085508,17.885081 C3.932902,17.9412842 4.00484721,17.9975637 4.07844542,18.0518595 C4.1585795,18.110911 4.23970537,18.1681824 4.32146708,18.224767 C4.397405,18.277359 4.47436017,18.328476 4.5517985,18.3789825 C4.63211058,18.4313456 4.71199033,18.4841919 4.79370117,18.5342153 C4.90760804,18.6039734 5.02380371,18.6703237 5.14066058,18.7355805 C5.24726867,18.7950897 5.35514829,18.8518524 5.46384175,18.9074199 C5.55526733,18.9541881 5.64674375,19.0006765 5.7397715,19.0446472 C5.82407629,19.0844981 5.90906775,19.1224925 5.99446612,19.1599782 C6.08678179,19.2005157 6.17998758,19.2392477 6.27372742,19.2770386 C6.35653179,19.3104045 6.43900554,19.344279 6.5227,19.3753815 C6.66501363,19.4283295 6.80905662,19.4775645 6.95432029,19.5241292 C6.98646546,19.5344035 7.01772054,19.5471445 7.04996746,19.5570882 L7.27457683,19.6262614 L7.28042604,19.621048 C8.14577738,19.8660278 9.05728658,20 10,20 C11.1673737,20 12.2878011,19.7969818 13.3302053,19.4276428 L13.334554,19.4311524 L13.5579427,19.34611 C13.5946147,19.3321228 13.6299133,19.3150838 13.6664072,19.3006897 C13.7933604,19.2504629 13.9191182,19.1980235 14.0434519,19.1428121 C14.1079203,19.1142527 14.1721852,19.0855408 14.2359924,19.0556335 C14.356842,18.9988708 14.4759115,18.9391327 14.5940653,18.877716 C14.6492259,18.8491058 14.7052765,18.8222758 14.7598775,18.7926483 C14.913152,18.7093353 15.0636037,18.6215718 15.2119191,18.530604 C15.2920277,18.4815724 15.3702036,18.4297688 15.4489135,18.3785248 C15.5243937,18.3292643 15.5994669,18.2795715 15.6735229,18.2283528 C15.7607523,18.1681569 15.8471934,18.10702 15.93249,18.0440775 C15.9886169,18.0025482 16.0434722,17.9595184 16.0987091,17.9168701 C16.4207204,17.6687622 16.7274983,17.401301 17.0177968,17.1153259 C17.0455424,17.0879363 17.0734151,17.0606994 17.10083,17.0330047 C17.1996052,16.9334157 17.2966003,16.8322499 17.3912302,16.7284393 C17.4019622,16.7166392 17.4122619,16.704483 17.422943,16.6926574 C17.5154622,16.5901947 17.6094055,16.4890543 17.6977538,16.3826497 L17.8361002,16.2162271 L17.8330993,16.2052408 C19.1878255,14.4987233 20,12.3430379 20,10 C20,9.91554258 19.9957021,9.83210246 19.9936168,9.74812825 L19.9987793,9.74446617 Z M16.7862701,16.1559296 C16.78243,16.1601257 16.7785136,16.164271 16.7746735,16.1684672 C16.4019521,16.5774536 15.9918722,16.9515482 15.5514526,17.287852 C15.5169423,17.314148 15.4828644,17.3409525 15.447998,17.3667399 C15.3649394,17.4283091 15.2803294,17.4878438 15.1951599,17.5466665 C15.1437632,17.5820668 15.0920614,17.6170349 15.039978,17.6513926 C14.962031,17.7029165 14.88355,17.7536774 14.80395,17.8028615 C14.7383118,17.8433227 14.6716563,17.8821564 14.6050263,17.9209646 C14.5341238,17.9623413 14.4636281,18.0043284 14.3915304,18.0438487 C14.2819214,18.1038157 14.1706594,18.1607565 14.058609,18.2162222 C14.002889,18.2438406 13.9469656,18.2710521 13.8906098,18.297577 C13.7683869,18.3550009 13.6453248,18.4105937 13.5205333,18.4626007 C13.5070801,18.4682211 13.4932709,18.4731547 13.4797923,18.4786988 L12.384847,17.5982667 L13.4899903,14.6889242 L16.5987143,14.8411052 L16.915385,16.0069021 C16.872228,16.0564931 16.8304443,16.1072795 16.7862701,16.1559296 Z M11.595637,17.3300934 L8.86449179,17.4604797 L7.56525675,14.4971466 L8.39604696,12.8332519 L11.6450755,12.8332519 L12.7381389,14.3218485 L11.595637,17.3300934 Z M6.93939208,18.6393483 C6.8729655,18.6157735 6.80702208,18.5910797 6.74118042,18.565979 C6.6532135,18.5324097 6.56542458,18.4985097 6.47878012,18.462321 C6.41934712,18.4375 6.36075337,18.4107971 6.30185446,18.38473 C6.21182758,18.3448791 6.12144471,18.3056386 6.03299458,18.2629903 C6.00662229,18.2502746 5.98098754,18.2360331 5.95474242,18.2230885 C5.75792946,18.12589 5.56551613,18.0212148 5.37694292,17.9105885 C5.32717383,17.8813934 5.27684525,17.8532409 5.22761025,17.8231048 C5.14381408,17.7718099 5.06177263,17.7179463 4.97978208,17.6640574 C4.92736813,17.6296234 4.87490333,17.5952403 4.82317604,17.5597127 C4.74220275,17.5040944 4.66229754,17.4470774 4.58323158,17.3889669 C4.53397113,17.3527781 4.485321,17.3157501 4.43674721,17.2785695 C4.35686746,17.2173564 4.27729288,17.1557872 4.19949846,17.0920563 C4.15863033,17.0585633 4.11890663,17.023646 4.07857254,16.9894409 C3.87296038,16.8149821 3.67454525,16.6324615 3.4850565,16.4408366 L3.74837233,15.2378337 L6.84529617,14.9302165 L8.09448238,17.7805583 L7.07738238,18.686142 C7.03135171,18.6706034 6.98509217,18.6555735 6.93939208,18.6393483 Z M0.856755583,9.37871296 C0.867741917,9.21582538 0.883077,9.05354817 0.902684542,8.89190671 C0.905532833,8.86838275 0.908635458,8.84493508 0.911661792,8.82143654 C0.932464625,8.66060892 0.957260125,8.50046792 0.986531583,8.34126787 C0.989278167,8.32633971 0.991745,8.31130979 0.994567875,8.29640704 C1.09410604,7.76949563 1.2400055,7.25278217 1.42969767,6.75214129 C1.44116721,6.72200517 1.45342508,6.69225054 1.46519979,6.66226704 C1.51471454,6.53561908 1.56738283,6.41016642 1.62256875,6.28575642 C1.64319354,6.23939513 1.66392008,6.19311013 1.68530779,6.14715575 C1.73550921,6.03892008 1.78866067,5.93198138 1.84313454,5.82565308 C1.86902363,5.7753245 1.89384458,5.72438558 1.92062375,5.67456563 C1.98580421,5.55295308 2.05464679,5.43314617 2.12542213,5.31438192 C2.14096067,5.28839113 2.15571083,5.26189167 2.17147825,5.23605346 L3.33374021,5.27323404 L4.19962563,8.26253254 L1.62475583,10.0099691 L0.854237833,9.41164654 C0.8549245,9.40063475 0.856018083,9.38972475 0.856755583,9.37871296 Z M8.36870829,0.981623333 C8.52088929,0.954182958 8.67362975,0.930684417 8.826828,0.910975125 C8.85609946,0.907236708 8.88526917,0.903269417 8.91459146,0.899785333 C9.07569883,0.880661 9.23721313,0.865783667 9.39900717,0.85520425 C9.41553754,0.854136125 9.43188988,0.852381375 9.44844563,0.851415 C9.81407163,0.829493208 10.1808421,0.829315167 10.5465698,0.851058958 C10.560913,0.851898208 10.5750783,0.853398625 10.5893961,0.854314167 C10.7529958,0.864791875 10.9163665,0.879770917 11.079305,0.899022417 C11.1088816,0.9025065 11.1382548,0.906524667 11.1677297,0.9102885 C11.3196055,0.929718042 11.471049,0.952885958 11.6219584,0.979944875 C11.6497803,0.984954833 11.6777038,0.989659625 11.7054494,0.9948985 C11.8746185,1.02681479 12.0431518,1.06292725 12.2105916,1.10448204 C12.2144317,1.105423 12.2183227,1.10621137 12.2221374,1.10715233 L12.5150553,2.00887046 L9.99715163,3.83809408 L7.47965488,2.00887046 L7.77180983,1.10860192 C7.94397983,1.06552125 8.11737054,1.02839154 8.29142246,0.995458 C8.31708271,0.990600583 8.34297179,0.98627725 8.36870829,0.981623333 Z M15.9209951,4.91368612 L14.8943837,7.93993633 L13.0887858,8.42671712 L10.4138183,6.48351033 L10.4138183,4.56527708 L12.998937,2.68732704 L15.9209951,4.91368612 Z M11.5531413,11.9999186 L8.44116212,11.9999186 L7.47965496,9.039917 L9.99715171,7.21069337 L12.5150554,9.039917 L11.5531413,11.9999186 Z M7.003301,2.69284567 L9.58048504,4.56525167 L9.58048504,6.48353575 L6.77731833,8.52012633 L5.01762392,8.08995562 L4.12734988,5.01660662 L7.003301,2.69284567 Z M4.76524354,8.88593038 L6.7074585,9.36070758 L7.68946329,12.3831431 L6.83532712,14.0937805 L3.67220558,14.4079081 L2.12331133,10.6785075 L4.76524354,8.88593038 Z M16.6234334,14.0079244 L13.4263102,13.8515727 L12.3181407,12.3423767 L13.3315277,9.22429408 L15.1306407,8.73926804 L17.7086131,10.6632996 L16.6234334,14.0079244 Z M18.2035319,9.99308267 L15.7096354,8.13151042 L16.7093913,5.18432617 L17.8044637,5.19854229 C17.813034,5.21240238 17.8223165,5.22570292 17.8308105,5.23961388 C17.9128011,5.37427271 17.9916128,5.51071171 18.06633,5.64910892 C18.0897776,5.69241846 18.1110636,5.73702496 18.1338247,5.78071596 C18.1908671,5.89057925 18.2466888,6.00095117 18.2991791,6.11289979 C18.3206685,6.15862529 18.341039,6.205012 18.361791,6.25114442 C18.4140778,6.36767071 18.4643046,6.48501079 18.5116069,6.60352071 C18.5272217,6.6424815 18.5427857,6.68141683 18.5578664,6.72065733 C18.6115265,6.86058042 18.6620077,7.00169879 18.708725,7.14403788 C18.7147268,7.16229754 18.7213389,7.1802775 18.727239,7.19858804 C18.8358307,7.53659567 18.9247894,7.88085938 18.9934794,8.229599 C18.9972433,8.24864704 19.0001678,8.26800029 19.0037791,8.28709921 C19.0318552,8.43454996 19.0560913,8.58278913 19.0768941,8.73166404 C19.0829722,8.77532963 19.088211,8.81930033 19.0936534,8.86316938 C19.1094462,8.98971558 19.1224925,9.11669417 19.1329956,9.24402875 C19.1353862,9.27312217 19.1375224,9.30224104 19.1396332,9.33138533 L18.2035319,9.99308267 Z M17.2162374,4.35742696 L16.5550995,4.34893292 L13.3610026,1.91530867 L13.1965637,1.40942896 C14.794693,2.00602212 16.1815898,3.03716025 17.2162374,4.35742696 Z M6.797053,1.41194662 L6.631546,1.92156475 L3.50827533,4.44513958 L2.73432413,4.42031862 C3.772583,3.07151796 5.176239,2.01840717 6.797053,1.41194662 Z M0.845006292,10.4595184 L1.26528421,10.7860565 L2.97058104,14.8920186 L2.80161537,15.6652578 C1.65941875,14.2171224 0.942230208,12.419103 0.845006292,10.4595184 Z M10,19.1666667 C9.32449342,19.1666667 8.66661071,19.0910848 8.03232829,18.9517466 L8.76485188,18.2996623 L11.7502085,18.1571452 L12.5525665,18.8023377 C11.741689,19.0378825 10.8858236,19.1666667 10,19.1666667 Z M17.5552622,15.18308 L17.3560333,14.450175 L18.5505931,10.7683563 L19.1580709,10.3388723 C19.0924835,12.131958 18.5105896,13.7948863 17.5552622,15.18308 Z"></path>
            </g>
        </g>
    </g>
</svg>