<?xml version="1.0" encoding="UTF-8"?>
<svg width="20px" height="20px" viewBox="0 0 20 20" version="1.1" xmlns="http://www.w3.org/2000/svg" xmlns:xlink="http://www.w3.org/1999/xlink">
    <!-- Generator: Sketch 56.3 (81716) - https://sketch.com -->
    <title>icon_Basketball_black</title>
    <desc>Created with Sketch.</desc>
    <g id="Page-1" stroke="none" stroke-width="1" fill="none" fill-rule="evenodd">
        <g id="UI-Elements" transform="translate(-82.000000, -113.000000)" fill="#4A4A4A" fill-rule="nonzero">
            <g id="icon_Basketball_black" transform="translate(82.000000, 113.000000)">
                <path d="M10,20 C15.513916,20 20,15.513916 20,10 C20,4.486084 15.513916,0 10,0 C4.486084,0 0,4.486084 0,10 C0,15.513916 4.486084,20 10,20 Z M4.93192038,17.6333618 C4.91671246,17.5960033 4.89962263,17.5550843 4.87772625,17.5044759 C3.90136721,15.2471924 3.84521487,13.1229655 4.71048992,11.1905925 C5.33223471,9.80224608 5.8428955,9.09322104 7.14335125,7.42106121 C7.63641358,6.78721112 7.90364583,5.98398846 8.03301496,5.38719179 C8.39846296,5.40949504 8.77683008,5.42483012 9.16870121,5.43169658 C8.78641767,8.74562583 8.74422712,13.4908295 10.1126862,19.1638184 C10.074997,19.1642761 10.0377909,19.1666667 10,19.1666667 C8.12728883,19.1666667 6.38468425,18.6011251 4.93192038,17.6333618 Z M15.0978597,17.5044759 C15.0722758,17.5636037 15.0510915,17.6138306 15.0346883,17.654775 C13.8403829,18.4429423 12.4526469,18.9604187 10.9583537,19.116389 C9.57878117,13.4783427 9.64269004,8.71587117 10.0288646,5.43088279 C10.6364441,5.422109 11.2711843,5.39176942 11.9319916,5.33660892 C12.0569357,5.93795779 12.3249055,6.76887517 12.8322347,7.42106121 C14.1326905,9.09322104 14.6433513,9.80224613 15.2650961,11.1905925 C16.1303711,13.1229655 16.0742188,15.2471924 15.0978597,17.5044759 Z M10.1374054,4.59795633 C10.4082998,2.71184283 10.76327,1.42509458 10.9312439,0.88038125 C11.619161,0.9500885 12.2837575,1.09863279 12.918574,1.31248471 C12.8941599,1.33911129 12.8694152,1.36566158 12.8458659,1.39261879 C12.0537058,2.29850767 11.8898519,3.51773579 11.8454234,4.50658158 C11.2554678,4.55551146 10.6831614,4.58742779 10.1374054,4.59795633 Z M16.2979126,16.6512553 C16.924057,14.6054586 16.8356323,12.6586405 16.025594,10.8500163 C15.3692627,9.38435875 14.8089599,8.60534671 13.4901937,6.90958658 C13.0995433,6.40729267 12.8776296,5.74050904 12.7662404,5.25423683 C14.1608175,5.09643554 15.6582896,4.82322692 17.2455597,4.39476012 C18.4481812,5.94573975 19.1666667,7.88998921 19.1666667,10 C19.1666667,12.6169586 18.0625915,14.9794515 16.2979126,16.6512553 Z M16.6386159,3.68883767 C15.2424113,4.04614762 13.9206695,4.28288775 12.6840718,4.42344662 C12.7298482,3.59598792 12.878418,2.62128192 13.4733072,1.94112138 C13.5062662,1.90327958 13.5406494,1.86625158 13.5750325,1.82922358 C13.6305999,1.76918025 13.6879984,1.70435583 13.7442525,1.63614904 C14.8397827,2.12855021 15.8212026,2.82943725 16.6386159,3.68883767 Z M10.0702922,0.835113542 C9.86651104,1.51178996 9.5292155,2.79853821 9.27477521,4.59843954 C8.88160708,4.59294638 8.49876404,4.58104454 8.13298546,4.55945333 C8.09199017,3.56185913 7.93607079,2.314504 7.12972008,1.39241538 C7.10805258,1.36759442 7.08529158,1.34325663 7.06286117,1.31879171 C7.98563638,1.00570679 8.97277833,0.833333333 10,0.833333333 C10.0235748,0.833333333 10.0467682,0.8349355 10.0702922,0.835113542 Z M6.23802183,1.64415996 C6.29241942,1.70951846 6.34775796,1.77192687 6.40136717,1.829834 C6.43554688,1.866862 6.46972654,1.90368654 6.50248208,1.94112142 C7.11448667,2.6410675 7.25402829,3.65287779 7.29520163,4.49493408 C5.57428996,4.33405558 4.22022504,4.02394613 3.29910279,3.75414529 C4.12427267,2.86946617 5.12186688,2.14869183 6.23802183,1.64415996 Z M2.71217346,4.4484965 C3.65862529,4.74718729 5.18971762,5.1342265 7.19278971,5.32315571 C7.07667033,5.80228167 6.85803729,6.43046058 6.48539225,6.90958658 C5.16662596,8.60534667 4.60632325,9.38435871 3.94999188,10.8500163 C3.14430238,12.6489258 3.05234275,14.5845032 3.66744996,16.61822 C1.92301433,14.9483744 0.833333333,12.599767 0.833333333,10 C0.833333333,7.914505 1.534729,5.99049888 2.71217346,4.4484965 Z" id="icon_Basketball"></path>
            </g>
        </g>
    </g>
</svg>