<?xml version="1.0" encoding="UTF-8"?>
<svg width="27px" height="32px" viewBox="0 0 27 32" version="1.1" xmlns="http://www.w3.org/2000/svg" xmlns:xlink="http://www.w3.org/1999/xlink">
    <!-- Generator: Sketch 56.3 (81716) - https://sketch.com -->
    <title>noun_mac_2076879</title>
    <desc>Created with Sketch.</desc>
    <g id="Symbols" stroke="none" stroke-width="1" fill="none" fill-rule="evenodd">
        <g id="comparison" transform="translate(-86.000000, -791.000000)" fill-rule="nonzero" stroke="#4A4A4A">
            <g id="Group-2">
                <g id="noun_mac_2076879" transform="translate(87.000000, 792.000000)">
                    <g id="Group">
                        <path d="M24.5174515,21.284868 C24.0489574,21.0880469 23.6057874,20.8543219 23.2259273,20.5098851 C22.1496571,19.5380812 21.4279229,18.3694562 21.2506549,16.9302022 C21.1746829,16.2536299 21.1746829,15.5647562 21.3392889,14.8881838 C21.554543,13.9901878 21.997713,13.2029036 22.6687992,12.5386325 C23.0993073,12.1203878 23.5424773,11.7144444 23.9729854,11.2961996 C24.2388875,11.037872 24.2895355,10.6565312 24.0616194,10.373601 C23.5804633,9.78313781 23.0486592,9.2295786 22.4155591,8.77442992 C21.630515,8.19626809 20.7441748,7.80262598 19.7818626,7.5812023 C19.0981145,7.43358651 18.4143664,7.3474773 17.7052942,7.40898388 C16.527728,7.51969572 15.4008098,7.83952993 14.2865536,8.2085694 C13.4002134,8.49149966 12.5391972,8.57760887 11.6275331,8.31928124 C10.5765869,8.01174835 9.51297866,7.72881809 8.41138445,7.60580493 C7.28446624,7.48279178 6.19553403,7.55659967 5.13192583,7.95024177 C3.80241558,8.4422944 2.77679338,9.27878387 1.95376322,10.3982036 C1.34598711,11.2223917 0.89015502,12.1203878 0.586266962,13.0921917 C0.231730895,14.2116115 0.0671248634,15.3679351 0.0671248634,15.9953022 C0.0164768538,17.6559799 0.181082885,18.7630983 0.421660931,19.8579154 C0.611590967,20.6944048 0.877493018,21.5062917 1.19404308,22.3058772 C1.94110122,24.2125811 2.91607541,25.9839706 4.24558566,27.558539 C4.9546578,28.3950284 5.76502595,29.1208061 6.79064815,29.5636534 C7.44907227,29.8465837 8.1328204,29.9572955 8.82923053,29.8465837 C9.56362667,29.7358719 10.2726988,29.4775442 10.9691089,29.2192166 C11.412279,29.0592995 11.8554491,28.9116837 12.3239432,28.8378758 C13.0710013,28.7148627 13.7800735,28.8501771 14.4891456,29.0592995 C15.2362038,29.2807232 15.9579379,29.5390508 16.704996,29.7358719 C17.8319143,30.0311034 18.8701984,29.895789 19.8578346,29.3053258 C21.0860489,28.5672469 21.997713,27.521635 22.7954192,26.3776127 C23.6817594,25.0859745 24.4288175,23.7205285 24.9099736,22.2320693 C25.0619176,21.8138246 24.9226356,21.4447851 24.5174515,21.284868 Z" id="Shape"></path>
                        <path d="M10.8200758,6.95810277 C10.9299242,6.94743083 11.0507576,6.93675889 11.1606061,6.92608696 C11.9405303,6.86205534 12.6765152,6.70197628 13.3356061,6.25375494 C13.8299242,5.91225296 14.2583333,5.5173913 14.642803,5.06916996 C15.1151515,4.51422925 15.5106061,3.90592885 15.7522727,3.2229249 C15.9280303,2.73201581 15.9829545,2.20909091 16.0378788,1.69683794 C16.0708333,1.38735178 16.0708333,1.08853755 16.092803,0.779051383 C16.1257576,0.298814229 15.7852273,-0.0853754941 15.2359848,0.042687747 C14.6867424,0.170750988 14.1484848,0.33083004 13.632197,0.565612648 C12.8522727,0.917786561 12.1382576,1.36600791 11.5890152,2.02766798 C10.6003788,3.21225296 10.1719697,4.59960474 10.0840909,6.10434783 C10.0840909,6.18972332 10.0840909,6.26442688 10.0840909,6.34980237 C10.0840909,6.77667984 10.3806818,7.02213439 10.8200758,6.95810277 Z" id="Shape"></path>
                    </g>
                </g>
            </g>
        </g>
    </g>
</svg>