<?xml version="1.0" encoding="UTF-8"?>
<svg width="22px" height="30px" viewBox="0 0 22 30" version="1.1" xmlns="http://www.w3.org/2000/svg" xmlns:xlink="http://www.w3.org/1999/xlink">
    <!-- Generator: Sketch 56.3 (81716) - https://sketch.com -->
    <title>noun_Android_824395</title>
    <desc>Created with Sketch.</desc>
    <g id="Symbols" stroke="none" stroke-width="1" fill="none" fill-rule="evenodd">
        <g id="comparison" transform="translate(-54.000000, -793.000000)" fill="#4A4A4A" fill-rule="nonzero">
            <g id="Group-2">
                <g id="noun_Android_824395" transform="translate(54.000000, 793.000000)">
                    <g id="Group">
                        <path d="M18.169279,11.3057851 L17.7249216,11.3057851 L3.9992163,11.3057851 L3.55485893,11.3057851 C1.65399687,11.3057851 0.123432602,12.8429752 0.123432602,14.7272727 L0.123432602,21.1239669 C0.123432602,21.3966942 0.345611285,21.6198347 0.617163009,21.6198347 C0.888714734,21.6198347 1.11089342,21.3966942 1.11089342,21.1239669 L1.11089342,14.7024793 C1.11089342,13.3884298 2.17241379,12.2975207 3.50548589,12.2727273 L3.50548589,21.0991736 C3.50548589,22.9834711 5.03605016,24.5206612 6.93691223,24.5206612 L6.93691223,29.4793388 C6.93691223,29.7520661 7.15909091,29.9752066 7.43064263,29.9752066 C7.70219436,29.9752066 7.92437304,29.7520661 7.92437304,29.4793388 L7.92437304,24.5206612 L13.7997649,24.5206612 L13.7997649,29.4793388 C13.7997649,29.7520661 14.0219436,29.9752066 14.2934953,29.9752066 C14.565047,29.9752066 14.7872257,29.7520661 14.7872257,29.4793388 L14.7872257,24.5206612 C16.6634013,24.5206612 18.218652,22.9834711 18.218652,21.0991736 L18.218652,12.2975207 C19.5517241,12.322314 20.6132445,13.4132231 20.6132445,14.7272727 L20.6132445,21.1239669 C20.6132445,21.3966942 20.8354232,21.6198347 21.1069749,21.6198347 C21.3785266,21.6198347 21.6007053,21.3966942 21.6007053,21.1239669 L21.6007053,14.7024793 C21.6007053,12.8181818 20.0454545,11.3057851 18.169279,11.3057851 Z M17.2311912,21.1239669 C17.2311912,22.4628099 16.1449843,23.553719 14.7872257,23.553719 L6.93691223,23.553719 C5.57915361,23.553719 4.49294671,22.4628099 4.49294671,21.1239669 L4.49294671,12.2975207 L17.2065047,12.2975207 L17.2065047,21.1239669 L17.2311912,21.1239669 Z" id="Shape"></path>
                        <path d="M3.50548589,9.61983471 C3.50548589,9.89256198 3.72766458,10.1157025 3.9992163,10.1157025 L17.7002351,10.1157025 C17.9717868,10.1157025 18.1939655,9.89256198 18.1939655,9.61983471 C18.1939655,7.23966942 17.0583856,5.1322314 15.3056426,3.79338843 L17.1324451,1.01652893 C17.2805643,0.79338843 17.2311912,0.47107438 16.984326,0.32231405 C16.7621473,0.173553719 16.4412226,0.223140496 16.2931034,0.47107438 L14.4416144,3.24793388 C13.380094,2.65289256 12.145768,2.28099174 10.8126959,2.28099174 C9.50431034,2.28099174 8.26998433,2.62809917 7.18377743,3.24793388 L5.3322884,0.47107438 C5.18416928,0.247933884 4.86324451,0.173553719 4.64106583,0.32231405 C4.41888715,0.47107438 4.34482759,0.79338843 4.49294671,1.01652893 L6.4184953,3.79338843 C4.64106583,5.1322314 3.50548589,7.23966942 3.50548589,9.61983471 Z M4.51763323,9.12396694 C4.76449843,5.87603306 7.52938871,3.29752066 10.862069,3.29752066 C14.1947492,3.29752066 16.9596395,5.87603306 17.2065047,9.12396694 L4.51763323,9.12396694 Z" id="Shape"></path>
                    </g>
                </g>
            </g>
        </g>
    </g>
</svg>