<?xml version="1.0" encoding="UTF-8"?>
<svg width="20px" height="20px" viewBox="0 0 20 20" version="1.1" xmlns="http://www.w3.org/2000/svg" xmlns:xlink="http://www.w3.org/1999/xlink">
    <!-- Generator: Sketch 56.3 (81716) - https://sketch.com -->
    <title>searchbox</title>
    <desc>Created with Sketch.</desc>
    <g id="Page-1" stroke="none" stroke-width="1" fill="none" fill-rule="evenodd">
        <g id="UI-Elements" transform="translate(-48.000000, -239.000000)" fill="#1E68C0" fill-rule="nonzero">
            <g id="searchbox" transform="translate(48.000000, 239.000000)">
                <g id="Search_icon_selected">
                    <path d="M15.4666771,15.2595703 L18.9852814,18.7781746 C19.1805435,18.9734367 19.1805435,19.2900192 18.9852814,19.4852814 C18.7900192,19.6805435 18.4734367,19.6805435 18.2781746,19.4852814 L14.7318972,15.9390039 C13.1751425,17.226404 11.1779128,18 9,18 C4.02943725,18 6.57252031e-14,13.9705627 6.57252031e-14,9 C6.57252031e-14,4.02943725 4.02943725,0 9,0 C13.9705627,0 18,4.02943725 18,9 C18,11.4326071 17.0348891,13.6398005 15.4666771,15.2595703 Z M9,17 C13.418278,17 17,13.418278 17,9 C17,4.581722 13.418278,1 9,1 C4.581722,1 1,4.581722 1,9 C1,13.418278 4.581722,17 9,17 Z"></path>
                </g>
            </g>
        </g>
    </g>
</svg>