<?xml version="1.0" encoding="UTF-8"?>
<svg width="22px" height="18px" viewBox="0 0 22 18" version="1.1" xmlns="http://www.w3.org/2000/svg" xmlns:xlink="http://www.w3.org/1999/xlink">
    <!-- Generator: Sketch 56.3 (81716) - https://sketch.com -->
    <title>sorting_icon</title>
    <desc>Created with Sketch.</desc>
    <g id="Page-1" stroke="none" stroke-width="1" fill="none" fill-rule="evenodd" stroke-linecap="round" stroke-linejoin="round">
        <g id="BAHİS_ligler2" transform="translate(-56.000000, -247.000000)" fill-rule="nonzero" stroke="#747B78">
            <g id="sorting_icon" transform="translate(56.000000, 247.000000)">
                <path d="M14.3333333,9.0505417 L7.66666667,9.0505417 L7.66666667,2 C7.66666667,1.44771525 7.21895142,1 6.66666667,1 L5.33333333,1 C4.78104858,1 4.33333333,1.44771525 4.33333333,2 L4.33333333,9.0505417 L1,9.0505417 L4.33333333,9.0505417 L1,9.0505417 L6.0169072,17 L10.9898888,9.0505417 L7.66666667,9.0505417 L10.9898888,9.0505417 L16.0261057,1 L21,9.0505417 L17.6666667,9.0505417 L17.6666667,16 C17.6666667,16.5522847 17.2189514,17 16.6666667,17 L15.3333333,17 C14.7810486,17 14.3333333,16.5522847 14.3333333,16 L14.3333333,9.0505417 Z" id="Combined-Shape"></path>
            </g>
        </g>
    </g>
</svg>