<?xml version="1.0" encoding="UTF-8"?>
<svg width="23px" height="22px" viewBox="0 0 23 22" version="1.1" xmlns="http://www.w3.org/2000/svg" xmlns:xlink="http://www.w3.org/1999/xlink">
    <!-- Generator: Sketch 56.3 (81716) - https://sketch.com -->
    <title>Star</title>
    <desc>Created with Sketch.</desc>
    <g id="Symbols" stroke="none" stroke-width="1" fill="none" fill-rule="evenodd">
        <g id="rate" transform="translate(-80.000000, 1.000000)" fill-rule="nonzero" stroke="#4A4A4A">
            <g id="Group-2">
                <path d="M101.594596,8.51982678 L96.1387891,12.4836037 L98.2230567,18.8967747 C98.3366279,19.2438871 98.212287,19.6245897 97.9179351,19.8393329 C97.769972,19.946119 97.5956171,19.9996872 97.4216615,19.9996872 C97.247706,19.9996872 97.0737504,19.9460389 96.9269884,19.8393329 L91.4715812,15.875536 L86.0165745,19.8389426 C85.72025,20.0536858 85.320752,20.0536858 85.0248279,19.8389426 C84.7301031,19.6241793 84.6061348,19.2438871 84.7193059,18.8967747 L86.8031736,12.482813 L81.3477669,8.51982678 C81.0522424,8.30508354 80.928274,7.92517166 81.0414452,7.57766895 C81.1546161,7.23015624 81.4785335,6.99501464 81.8428405,6.99501464 L88.5863188,6.99501464 L90.670185,0.582243947 C90.7829525,0.234741238 91.1060743,0 91.4723809,0 C91.8370881,0 92.1602049,0.234741238 92.2729764,0.582243947 L94.3564442,6.99501464 L101.100323,6.99501464 C101.465029,6.99501464 101.788546,7.23015624 101.902518,7.57766895 C102.013687,7.92517166 101.889716,8.30508354 101.594596,8.51982678" id="Star"></path>
            </g>
        </g>
    </g>
</svg>