<?xml version="1.0" encoding="UTF-8"?>
<svg width="21px" height="20px" viewBox="0 0 21 20" version="1.1" xmlns="http://www.w3.org/2000/svg" xmlns:xlink="http://www.w3.org/1999/xlink">
    <title>Icon/Tools/Social/Facebook</title>
    <g id="Symbols" stroke="none" stroke-width="1" fill="none" fill-rule="evenodd">
        <g id="social-media" transform="translate(-10.000000, -24.000000)" fill="#FFFFFF">
            <path d="M29.1416667,24 L11.3583333,24 C10.748107,24.0045372 10.2545372,24.498107 10.25,25.1083333 L10.25,42.8916667 C10.2545372,43.501893 10.748107,43.9954628 11.3583333,44 L20.9333333,44 L20.9333333,36.2666667 L18.3333333,36.2666667 L18.3333333,33.2416667 L20.9333333,33.2416667 L20.9333333,31.0166667 C20.9333333,28.4333333 22.5083333,27.025 24.825,27.025 C25.6,27.025 26.375,27.025 27.15,27.1416667 L27.15,29.8333333 L25.5583333,29.8333333 C24.3,29.8333333 24.0583333,30.4333333 24.0583333,31.3083333 L24.0583333,33.2333333 L27.0583333,33.2333333 L26.6666667,36.2583333 L24.0583333,36.2583333 L24.0583333,44 L29.1416667,44 C29.751893,43.9954628 30.2454628,43.501893 30.25,42.8916667 L30.25,25.1083333 C30.2454628,24.498107 29.751893,24.0045372 29.1416667,24 Z" id="Icon/Tools/Social/Facebook"></path>
        </g>
    </g>
</svg>