<?xml version="1.0" encoding="UTF-8"?>
<svg width="21px" height="20px" viewBox="0 0 21 20" version="1.1" xmlns="http://www.w3.org/2000/svg" xmlns:xlink="http://www.w3.org/1999/xlink">
    <title>Icon/Tools/Social/Instagram</title>
    <g id="Symbols" stroke="none" stroke-width="1" fill="none" fill-rule="evenodd">
        <g id="social-media" transform="translate(-10.000000, -75.000000)" fill="#FFFFFF">
            <path d="M20.25,75 C22.9657143,75 23.3071429,75.0114286 24.3728571,75.06 C25.4371429,75.1085714 26.1642857,75.2771429 26.8014286,75.5242857 C27.4585714,75.7814286 28.0157143,76.1228571 28.5728571,76.6785714 C29.1271429,77.2342857 29.47,77.7928571 29.7257143,78.45 C29.9728571,79.0857143 30.14,79.8128571 30.19,80.8771429 C30.2385714,81.9442857 30.25,82.2842857 30.25,85 C30.25,87.7157143 30.2385714,88.0571429 30.19,89.1228571 C30.1414286,90.1871429 29.9728571,90.9142857 29.7257143,91.5514286 C29.4685714,92.2085714 29.1271429,92.7657143 28.5714286,93.3228571 C28.0157143,93.8771429 27.4571429,94.22 26.8,94.4757143 C26.1642857,94.7228571 25.4371429,94.89 24.3728571,94.94 C23.3071429,94.9885714 22.9657143,95 20.25,95 C17.5342857,95 17.1928571,94.9885714 16.1271429,94.94 C15.0628571,94.8914286 14.3357143,94.7228571 13.6985714,94.4757143 C13.0311518,94.224407 12.4266122,93.8304813 11.9271429,93.3214286 C11.4190859,92.8217067 11.0261435,92.2171799 10.7757143,91.55 C10.5271429,90.9142857 10.3585714,90.1871429 10.31,89.1228571 C10.2614286,88.0571429 10.25,87.7157143 10.25,85 C10.25,82.2842857 10.2614286,81.9428571 10.31,80.8771429 C10.3585714,79.8128571 10.5271429,79.0857143 10.7757143,78.4485714 C11.03,77.7914286 11.3728571,77.2342857 11.9285714,76.6771429 C12.4842857,76.1228571 13.0428571,75.78 13.7,75.5242857 C14.3357143,75.2771429 15.0628571,75.11 16.1271429,75.06 C17.1928571,75.0114286 17.5342857,75 20.25,75 Z M20.2657143,79.9757143 C17.4995567,79.9757143 15.2571429,82.2181281 15.2571429,84.9842857 C15.2571429,87.7504433 17.4995567,89.9928571 20.2657143,89.9928571 C23.0318719,89.9928571 25.2742857,87.7504433 25.2742857,84.9842857 C25.2742857,82.2181281 23.0318719,79.9757143 20.2657143,79.9757143 Z M27.2771429,79.4757143 C27.2771429,78.6457092 26.6042908,77.9728571 25.7742857,77.9728571 C24.9442806,77.9728571 24.2714286,78.6457092 24.2714286,79.4757143 C24.2714286,80.3057194 24.9442806,80.9785714 25.7742857,80.9785714 C26.6042908,80.9785714 27.2771429,80.3057194 27.2771429,79.4757143 L27.2771429,79.4757143 Z M20.2642857,88.2342857 C19.0801948,88.2693978 17.9707088,87.6577454 17.3682947,86.6377447 C16.7658806,85.6177441 16.7658806,84.3508274 17.3682947,83.3308267 C17.9707088,82.310826 19.0801948,81.6991736 20.2642857,81.7342857 C22.0217006,81.7863987 23.4193413,83.2260983 23.4193413,84.9842857 C23.4193413,86.7424731 22.0217006,88.1821727 20.2642857,88.2342857 L20.2642857,88.2342857 Z" id="Icon/Tools/Social/Instagram"></path>
        </g>
    </g>
</svg>