<?xml version="1.0" encoding="UTF-8"?>
<svg width="21px" height="17px" viewBox="0 0 21 17" version="1.1" xmlns="http://www.w3.org/2000/svg" xmlns:xlink="http://www.w3.org/1999/xlink">
    <title>Icon/Tools/Social/Twitter</title>
    <g id="Symbols" stroke="none" stroke-width="1" fill="none" fill-rule="evenodd">
        <g id="social-media" transform="translate(-10.000000, -126.000000)" fill="#FFFFFF">
            <path d="M16.9784091,142.251803 C20.0801482,142.271311 23.0605003,141.047775 25.2538045,138.854471 C27.4471086,136.661167 28.6706447,133.680815 28.6511364,130.579076 C28.6511364,130.397258 28.6511364,130.22453 28.6511364,130.042712 C29.4471298,129.45952 30.1361,128.742868 30.6875,127.92453 C29.9379704,128.252344 29.1448727,128.469757 28.3329545,128.569985 C29.1937823,128.057058 29.839682,127.249683 30.1511364,126.297258 C29.3488829,126.778568 28.4691507,127.116926 27.5511364,127.297258 C26.2800834,125.942917 24.2585492,125.609608 22.6199898,126.484216 C20.9814305,127.358824 20.1332995,129.223862 20.5511364,131.033621 C17.2527745,130.871723 14.1788474,129.314928 12.0965909,126.751803 C11.0192826,128.621603 11.5757402,131.006422 13.3693182,132.206349 C12.7316931,132.181757 12.1088206,132.007352 11.5511364,131.697258 L11.5511364,131.742712 C11.539461,133.683118 12.8839118,135.368416 14.7784091,135.788167 C14.1853527,135.947676 13.5641292,135.972525 12.9602273,135.860894 C13.5056268,137.506467 15.0270616,138.631164 16.7602273,138.669985 C15.3140556,139.834098 13.516674,140.474875 11.6602273,140.488167 C11.3347302,140.478746 11.0099974,140.451432 10.6875,140.406349 C12.5665501,141.603529 14.7504131,142.234703 16.9784091,142.22453" id="Icon/Tools/Social/Twitter"></path>
        </g>
    </g>
</svg>